<svg version="1.1" id="Layer_1" xmlns:x="ns_extend;" xmlns:i="ns_ai;" xmlns:graph="ns_graphs;" xmlns="http://www.w3.org/2000/svg" xmlns:xlink="http://www.w3.org/1999/xlink" x="0px" y="0px" viewBox="0 0 320 60" style="enable-background:new 0 0 320 60;" xml:space="preserve">
 <metadata>
  <sfw xmlns="ns_sfw;">
   <slices>
   </slices>
   <sliceSourceBounds bottomLeftOrigin="true" height="59" width="320" x="0" y="1">
   </sliceSourceBounds>
  </sfw>
 </metadata>
 <path d="M38.6,38.4l9.2,16.9H30.7l-7.8-14.4h-7.4v14.4H0V4.2h28.4c11.8,0,19.2,6.5,19.2,18.3C47.7,30,44.2,35.4,38.6,38.4z
	 M15.6,17.5v10.1h11.1c3.3,0,5.3-1.9,5.3-5.1s-2-5-5.3-5H15.6z M97.2,59L50.7,46.5L63.1,0l23.3,6.3l23.3,6.3L97.2,59z M88.4,24.8
	l-13-3.6l-3.5,13l13,3.6L88.4,24.8z M163,40.9c0,9.8-6.2,14.4-16,14.4h-30.5V4.2H146c9.7,0,16,5,16,13.8c0,5.5-2,9.2-5.9,11.7
	C160.5,31.7,163,35.5,163,40.9z M131.7,16.4V24h10.1c2.8,0,4.4-1.2,4.4-3.9c0-2.5-1.6-3.7-4.4-3.7H131.7z M131.7,43h11.4
	c2.7,0,4.2-1.4,4.2-3.9c0-2.7-1.5-3.9-4.2-3.9h-11.4V43z M170.7,4.2h15.6v35.9h22.3v15.1h-37.9L170.7,4.2z M265.8,29.7
	c0,5.3-1.6,10.4-4.5,14.8c-2.9,4.4-7.1,7.8-11.9,9.8c-4.9,2-10.2,2.5-15.4,1.5c-5.2-1-9.9-3.6-13.6-7.3c-3.7-3.7-6.3-8.4-7.3-13.6
	c-1-5.2-0.5-10.5,1.5-15.3c2-4.9,5.4-9,9.8-11.9c4.4-2.9,9.5-4.5,14.8-4.5c3.5,0,7,0.7,10.2,2c3.2,1.3,6.2,3.3,8.6,5.8
	c2.5,2.5,4.4,5.4,5.8,8.6C265.1,22.8,265.8,26.2,265.8,29.7L265.8,29.7z M250.2,29.7c0-6.3-5-11.3-11.1-11.3c-6,0-11.1,5-11.1,11.3
	s5,11.3,11.1,11.3C245.2,41.1,250.2,36.1,250.2,29.7L250.2,29.7z M303.2,28.9L320,55.3h-18.5l-9.2-15l-9.5,15h-18.8l17.5-25.7
	L265.4,4.2h18.5l8.5,13.8l8.2-13.8H319L303.2,28.9z">
 </path>
</svg>