<svg version="1.1" id="Layer_1" xmlns="http://www.w3.org/2000/svg" xmlns:xlink="http://www.w3.org/1999/xlink" x="0px" y="0px"
	 width="100%" viewBox="0 0 697 697" enable-background="new 0 0 697 697" xml:space="preserve">
<path fill="#000000" opacity="1.000000" stroke="none" 
	d="
M330.000000,698.000000 
	C220.000000,698.000000 110.500000,698.000000 1.000000,698.000000 
	C1.000000,465.666656 1.000000,233.333328 1.000000,1.000000 
	C233.333328,1.000000 465.666656,1.000000 698.000000,1.000000 
	C698.000000,233.333328 698.000000,465.666656 698.000000,698.000000 
	C575.500000,698.000000 453.000000,698.000000 330.000000,698.000000 
M334.082214,445.572784 
	C335.465332,445.009003 336.860596,444.473145 338.229767,443.877228 
	C355.140808,436.516815 370.808258,427.499878 383.243591,413.348663 
	C406.290558,387.121582 404.030884,343.532898 374.128906,324.786896 
	C373.798584,324.579773 373.740234,323.938812 373.680695,323.797943 
	C398.852997,310.035065 415.318207,290.118805 418.388489,261.051147 
	C420.811249,238.113525 412.705994,221.274765 390.134277,213.760330 
	C381.470459,210.876022 371.916718,209.602448 362.748413,209.506256 
	C340.226715,209.269943 318.100159,213.263382 296.059113,217.660324 
	C292.328033,218.404663 290.786041,219.745895 290.240143,223.429688 
	C285.638611,254.481018 280.785309,285.495087 276.205994,316.549622 
	C270.438477,355.661682 263.165924,394.467316 253.286285,432.764801 
	C251.357056,440.243225 249.528076,447.747498 247.568253,455.577911 
	C277.521271,460.315765 305.757172,455.931152 334.082214,445.572784 
M560.691345,369.270996 
	C560.111084,370.426331 559.448730,371.548279 558.963318,372.742157 
	C554.642761,383.368774 547.992126,392.198914 538.211975,398.269531 
	C530.704407,402.929504 524.143982,400.269226 522.334045,391.749725 
	C521.313965,386.948242 520.930054,381.772064 521.503357,376.911346 
	C524.718140,349.651642 534.105652,324.311890 546.903442,300.238525 
	C551.169678,292.213440 556.178284,284.375977 562.031311,277.453674 
	C569.385925,268.755402 575.457581,269.650421 581.852905,278.921692 
	C582.022522,279.167542 582.397095,279.271942 582.830811,279.536774 
	C596.191528,275.992493 609.691162,272.507019 623.101929,268.707611 
	C624.463379,268.321960 626.120667,266.096436 626.208679,264.638184 
	C626.478455,260.170593 626.189697,255.650879 625.869141,251.169235 
	C624.607971,233.536728 612.277283,217.975189 596.189026,213.649292 
	C586.390930,211.014740 576.638306,212.396637 567.074463,214.697205 
	C542.148438,220.693115 523.732178,236.366989 509.029266,256.324127 
	C478.237396,298.119812 466.688812,345.677094 469.396149,396.996796 
	C470.011230,408.656647 472.920380,419.983917 478.250336,430.540009 
	C490.437988,454.677979 512.262207,462.924530 537.246582,452.599518 
	C551.014954,446.909607 562.701294,438.191895 572.501648,426.989960 
	C583.535339,414.378174 591.646545,400.011444 598.355286,384.276093 
	C585.737061,379.170471 573.586182,374.253998 560.691345,369.270996 
M211.883270,244.461700 
	C215.576294,230.101227 219.269318,215.740738 223.082108,200.914551 
	C221.488007,201.262894 220.549332,201.491882 219.601334,201.671646 
	C202.971817,204.824875 186.377991,208.194717 169.683502,210.955734 
	C165.771164,211.602768 163.915649,212.621964 163.176651,216.583832 
	C154.225342,264.573547 145.246460,312.558716 136.013809,360.494843 
	C134.263351,369.583252 131.885941,378.628967 128.865402,387.372253 
	C125.980515,395.722870 121.447891,397.378510 113.161125,394.009949 
	C109.758980,392.626923 106.775452,390.214111 103.419220,388.158081 
	C95.952850,404.828369 88.431961,421.620361 80.800301,438.659668 
	C89.354286,445.261230 98.266296,450.597382 108.372414,453.773438 
	C129.811615,460.511017 146.195740,455.765320 159.268982,437.419159 
	C165.268936,428.999207 170.761948,419.502930 173.567825,409.662903 
	C180.566803,385.118011 186.123978,360.149231 191.834305,335.252960 
	C198.700668,305.316498 205.126648,275.279022 211.883270,244.461700 
z"/>
<path fill="#31B0FD" opacity="1.000000" stroke="none" 
	d="
M333.718475,445.709045 
	C305.757172,455.931152 277.521271,460.315765 247.568253,455.577911 
	C249.528076,447.747498 251.357056,440.243225 253.286285,432.764801 
	C263.165924,394.467316 270.438477,355.661682 276.205994,316.549622 
	C280.785309,285.495087 285.638611,254.481018 290.240143,223.429688 
	C290.786041,219.745895 292.328033,218.404663 296.059113,217.660324 
	C318.100159,213.263382 340.226715,209.269943 362.748413,209.506256 
	C371.916718,209.602448 381.470459,210.876022 390.134277,213.760330 
	C412.705994,221.274765 420.811249,238.113525 418.388489,261.051147 
	C415.318207,290.118805 398.852997,310.035065 373.680695,323.797943 
	C373.740234,323.938812 373.798584,324.579773 374.128906,324.786896 
	C404.030884,343.532898 406.290558,387.121582 383.243591,413.348663 
	C370.808258,427.499878 355.140808,436.516815 338.229767,443.877228 
	C336.860596,444.473145 335.465332,445.009003 333.718475,445.709045 
M322.063202,339.582153 
	C319.133881,356.166840 316.204559,372.751526 313.185944,389.841736 
	C317.643188,389.179565 321.581451,388.810974 325.420654,387.983002 
	C336.402008,385.614807 346.978180,382.318939 354.650024,373.324280 
	C360.533844,366.425903 361.348694,355.134430 356.464661,348.799683 
	C350.376892,340.903656 332.101044,335.508331 322.063202,339.582153 
M359.779083,286.330536 
	C362.206726,284.597656 364.891815,283.130310 367.008972,281.077271 
	C371.575531,276.649109 371.558319,269.746033 366.701874,265.617035 
	C358.216431,258.402679 347.988892,257.302124 337.413300,257.689423 
	C334.959656,270.719818 332.611115,283.192139 329.935364,297.402161 
	C340.592896,293.514435 349.878052,290.127319 359.779083,286.330536 
z"/>
<path fill="#FD341C" opacity="1.000000" stroke="none" 
	d="
M561.063354,369.304260 
	C573.586182,374.253998 585.737061,379.170471 598.355286,384.276093 
	C591.646545,400.011444 583.535339,414.378174 572.501648,426.989960 
	C562.701294,438.191895 551.014954,446.909607 537.246582,452.599518 
	C512.262207,462.924530 490.437988,454.677979 478.250336,430.540009 
	C472.920380,419.983917 470.011230,408.656647 469.396149,396.996796 
	C466.688812,345.677094 478.237396,298.119812 509.029266,256.324127 
	C523.732178,236.366989 542.148438,220.693115 567.074463,214.697205 
	C576.638306,212.396637 586.390930,211.014740 596.189026,213.649292 
	C612.277283,217.975189 624.607971,233.536728 625.869141,251.169235 
	C626.189697,255.650879 626.478455,260.170593 626.208679,264.638184 
	C626.120667,266.096436 624.463379,268.321960 623.101929,268.707611 
	C609.691162,272.507019 596.191528,275.992493 582.830811,279.536774 
	C582.397095,279.271942 582.022522,279.167542 581.852905,278.921692 
	C575.457581,269.650421 569.385925,268.755402 562.031311,277.453674 
	C556.178284,284.375977 551.169678,292.213440 546.903442,300.238525 
	C534.105652,324.311890 524.718140,349.651642 521.503357,376.911346 
	C520.930054,381.772064 521.313965,386.948242 522.334045,391.749725 
	C524.143982,400.269226 530.704407,402.929504 538.211975,398.269531 
	C547.992126,392.198914 554.642761,383.368774 558.963318,372.742157 
	C559.448730,371.548279 560.111084,370.426331 561.063354,369.304260 
z"/>
<path fill="#31B0FD" opacity="1.000000" stroke="none" 
	d="
M211.813293,244.873474 
	C205.126648,275.279022 198.700668,305.316498 191.834305,335.252960 
	C186.123978,360.149231 180.566803,385.118011 173.567825,409.662903 
	C170.761948,419.502930 165.268936,428.999207 159.268982,437.419159 
	C146.195740,455.765320 129.811615,460.511017 108.372414,453.773438 
	C98.266296,450.597382 89.354286,445.261230 80.800301,438.659668 
	C88.431961,421.620361 95.952850,404.828369 103.419220,388.158081 
	C106.775452,390.214111 109.758980,392.626923 113.161125,394.009949 
	C121.447891,397.378510 125.980515,395.722870 128.865402,387.372253 
	C131.885941,378.628967 134.263351,369.583252 136.013809,360.494843 
	C145.246460,312.558716 154.225342,264.573547 163.176651,216.583832 
	C163.915649,212.621964 165.771164,211.602768 169.683502,210.955734 
	C186.377991,208.194717 202.971817,204.824875 219.601334,201.671646 
	C220.549332,201.491882 221.488007,201.262894 223.082108,200.914551 
	C219.269318,215.740738 215.576294,230.101227 211.813293,244.873474 
z"/>
<path fill="#000102" opacity="1.000000" stroke="none" 
	d="
M322.208649,339.155945 
	C332.101044,335.508331 350.376892,340.903656 356.464661,348.799683 
	C361.348694,355.134430 360.533844,366.425903 354.650024,373.324280 
	C346.978180,382.318939 336.402008,385.614807 325.420654,387.983002 
	C321.581451,388.810974 317.643188,389.179565 313.185944,389.841736 
	C316.204559,372.751526 319.133881,356.166840 322.208649,339.155945 
z"/>
<path fill="#000203" opacity="1.000000" stroke="none" 
	d="
M359.471130,286.535370 
	C349.878052,290.127319 340.592896,293.514435 329.935364,297.402161 
	C332.611115,283.192139 334.959656,270.719818 337.413300,257.689423 
	C347.988892,257.302124 358.216431,258.402679 366.701874,265.617035 
	C371.558319,269.746033 371.575531,276.649109 367.008972,281.077271 
	C364.891815,283.130310 362.206726,284.597656 359.471130,286.535370 
z"/>
</svg>